<svg width="1388" height="120" viewBox="0 0 1388 120" fill="none" xmlns="http://www.w3.org/2000/svg">
<path d="M790.146 118.674C781.208 118.674 772.661 117.348 764.504 114.696C756.348 111.934 749.923 108.398 745.23 104.088L751.432 91.1602C755.901 95.0276 761.599 98.232 768.526 100.773C775.454 103.315 782.66 104.586 790.146 104.586C796.962 104.586 802.493 103.812 806.739 102.265C810.984 100.718 814.113 98.6188 816.124 95.9668C818.135 93.2044 819.141 90.1105 819.141 86.6851C819.141 82.7072 817.8 79.5027 815.118 77.0718C812.549 74.6409 809.141 72.7072 804.895 71.2707C800.761 69.7237 796.18 68.3978 791.152 67.2928C786.124 66.1878 781.04 64.9171 775.901 63.4806C770.873 61.9337 766.236 60 761.99 57.6795C757.856 55.3591 754.504 52.2652 751.934 48.3978C749.365 44.4199 748.08 39.337 748.08 33.1491C748.08 27.1823 749.644 21.7127 752.772 16.7403C756.013 11.6575 760.929 7.62431 767.521 4.64089C774.225 1.54696 782.716 0 792.996 0C799.811 0 800.207 0 814.222 0C841.949 0 830.937 0 856.57 0V14.0884C849.941 14.0884 823.93 14.0884 814.222 14.0884C803.908 13.7038 798.247 14.0884 792.996 14.0884C786.403 14.0884 780.985 14.9171 776.739 16.5746C772.493 18.232 769.364 20.442 767.353 23.2044C765.454 25.9669 764.504 29.0607 764.504 32.4861C764.504 36.5745 765.789 39.8342 768.359 42.2652C771.04 44.6961 774.448 46.6298 778.582 48.0663C782.828 49.5027 787.465 50.8287 792.493 52.0442C797.521 53.1491 802.549 54.4199 807.577 55.8563C812.716 57.2928 817.353 59.1712 821.487 61.4917C825.733 63.8121 829.141 66.906 831.711 70.7734C834.28 74.6409 835.565 79.6132 835.565 85.6906C835.565 91.547 833.945 97.0166 830.705 102.099C827.465 107.072 822.437 111.105 815.621 114.199C808.917 117.182 800.426 118.674 790.146 118.674Z" fill="white"/>
<path d="M870.078 117.348V14.0884L856.57 14.0884V0H926.894V14.0884H886.671V117.348H870.078Z" fill="white"/>
<path d="M1006.71 118.673C991.288 118.673 979.165 114.308 970.338 105.579C961.511 96.8496 957.098 84.0872 957.098 67.2916V1.32474H973.858V66.6286C973.858 79.5568 976.707 89.0043 982.405 94.9712C988.215 100.938 996.372 103.921 1006.87 103.921C1017.49 103.921 1025.65 100.938 1031.34 94.9712C1037.15 89.0043 1040.06 79.5568 1040.06 66.6286V1.32474H1056.32V67.2916C1056.32 84.0872 1051.9 96.8496 1043.08 105.579C1034.36 114.308 1022.24 118.673 1006.71 118.673Z" fill="white"/>
<path d="M1086.83 117.348V1.32596H1136.27C1148.79 1.32596 1159.79 3.7569 1169.29 8.61879C1178.9 13.4807 1186.33 20.2762 1191.58 29.0055C1196.94 37.7348 1199.62 47.8453 1199.62 59.337C1199.62 70.8287 1196.94 80.9392 1191.58 89.6685C1186.33 98.3978 1178.9 105.193 1169.29 110.055C1159.79 114.917 1148.79 117.348 1136.27 117.348H1086.83ZM1103.59 102.928H1135.27C1144.99 102.928 1153.37 101.105 1160.41 97.4586C1167.56 93.8121 1173.09 88.7293 1177 82.2099C1180.91 75.5801 1182.86 67.9558 1182.86 59.337C1182.86 50.6077 1180.91 42.9834 1177 36.464C1173.09 29.9447 1167.56 24.8619 1160.41 21.2155C1153.37 17.5691 1144.99 15.7459 1135.27 15.7459H1103.59V102.928Z" fill="white"/>
<path d="M1223.56 117.348V1.32596H1240.32V117.348H1223.56Z" fill="white"/>
<path d="M1325.05 120C1316.11 120 1307.79 118.508 1300.08 115.525C1292.48 112.541 1285.89 108.398 1280.3 103.094C1274.72 97.6795 1270.36 91.3812 1267.23 84.1989C1264.1 77.0165 1262.54 69.1712 1262.54 60.6629C1262.54 52.1546 1264.1 44.3093 1267.23 37.127C1270.36 29.9447 1274.72 23.7017 1280.3 18.3978C1285.89 12.9834 1292.48 8.78452 1300.08 5.80109C1307.68 2.81767 1316 1.32596 1325.05 1.32596C1333.99 1.32596 1342.2 2.81767 1349.69 5.80109C1357.29 8.67403 1363.88 12.8177 1369.47 18.232C1375.16 23.5359 1379.52 29.7789 1382.54 36.9613C1385.67 44.1436 1387.23 52.0441 1387.23 60.6629C1387.23 69.2817 1385.67 77.1823 1382.54 84.3646C1379.52 91.5469 1375.16 97.8453 1369.47 103.26C1363.88 108.564 1357.29 112.707 1349.69 115.691C1342.2 118.564 1333.99 120 1325.05 120ZM1325.05 105.249C1331.53 105.249 1337.51 104.144 1342.98 101.934C1348.57 99.7238 1353.38 96.6298 1357.4 92.6519C1361.53 88.5635 1364.72 83.8121 1366.95 78.3978C1369.3 72.9834 1370.47 67.0718 1370.47 60.6629C1370.47 54.2541 1369.3 48.3425 1366.95 42.9281C1364.72 37.5138 1361.53 32.8177 1357.4 28.8398C1353.38 24.7514 1348.57 21.6022 1342.98 19.3923C1337.51 17.1823 1331.53 16.0773 1325.05 16.0773C1318.46 16.0773 1312.37 17.1823 1306.78 19.3923C1301.31 21.6022 1296.5 24.7514 1292.37 28.8398C1288.24 32.8177 1285 37.5138 1282.65 42.9281C1280.42 48.3425 1279.3 54.2541 1279.3 60.6629C1279.3 67.0718 1280.42 72.9834 1282.65 78.3978C1285 83.8121 1288.24 88.5635 1292.37 92.6519C1296.5 96.6298 1301.31 99.7238 1306.78 101.934C1312.37 104.144 1318.46 105.249 1325.05 105.249Z" fill="white"/>
<path d="M0 118.353V3.96741H51.4351C64.6488 3.96741 74.8047 6.63641 81.903 11.9744C89.0013 17.2034 92.5504 24.3934 92.5504 33.5442C92.5504 39.7537 91.1308 44.9828 88.2915 49.2314C85.5613 53.48 81.8484 56.7481 77.1526 59.0359C72.4569 61.3236 67.3789 62.4674 61.9187 62.4674L64.8672 57.5652C71.4194 57.5652 77.2072 58.709 82.2306 60.9967C87.254 63.2845 91.24 66.6615 94.1885 71.128C97.137 75.4856 98.6112 80.9325 98.6112 87.4688C98.6112 97.2733 94.8983 104.899 87.4724 110.346C80.1557 115.684 69.2353 118.353 54.7112 118.353H0ZM16.3806 105.117H54.056C63.1199 105.117 70.0544 103.592 74.8594 100.541C79.6643 97.4912 82.0668 92.6979 82.0668 86.1616C82.0668 79.5163 79.6643 74.6685 74.8594 71.6183C70.0544 68.568 63.1199 67.0428 54.056 67.0428H14.9063V53.8068H49.9608C58.2603 53.8068 64.7034 52.2817 69.2899 49.2314C73.8765 46.1811 76.1698 41.6057 76.1698 35.5051C76.1698 29.4046 73.8765 24.8291 69.2899 21.7789C64.7034 18.7286 58.2603 17.2035 49.9608 17.2035H16.3806V105.117Z" fill="white"/>
<path d="M138.717 118.353V3.96741H183.436C193.483 3.96741 202.055 5.54702 209.153 8.70625C216.252 11.8655 221.712 16.4409 225.534 22.4325C229.356 28.4241 231.267 35.5596 231.267 43.8389C231.267 52.1183 229.356 59.2537 225.534 65.2453C221.712 71.128 216.252 75.649 209.153 78.8082C202.055 81.9674 193.483 83.547 183.436 83.547H147.726L155.097 76.0303V118.353H138.717ZM215.378 118.353L186.221 76.8473H203.748L233.233 118.353H215.378ZM155.097 77.6643L147.726 69.6574H182.944C193.428 69.6574 201.345 67.4241 206.696 62.9576C212.157 58.3822 214.887 52.0093 214.887 43.8389C214.887 35.6685 212.157 29.3501 206.696 24.8836C201.345 20.4171 193.428 18.1839 182.944 18.1839H147.726L155.097 10.0135V77.6643Z" fill="white"/>
<path d="M319.978 119.66C304.908 119.66 293.06 115.357 284.433 106.751C275.805 98.1448 271.492 85.5624 271.492 69.0037V3.96741H287.872V68.3501C287.872 81.0959 290.657 90.4101 296.227 96.2928C301.905 102.176 309.877 105.117 320.142 105.117C330.517 105.117 338.489 102.176 344.058 96.2928C349.737 90.4101 352.576 81.0959 352.576 68.3501V3.96741H368.465V69.0037C368.465 85.5624 364.151 98.1448 355.524 106.751C347.006 115.357 335.158 119.66 319.978 119.66Z" fill="white"/>
<path d="M416.79 118.353V3.96741H430.222L506.065 97.9269H499.021V3.96741H515.402V118.353H501.969L426.127 24.3934H433.171V118.353H416.79Z" fill="white"/>
<path d="M616.228 119.66C607.492 119.66 599.356 118.189 591.821 115.248C584.395 112.307 577.952 108.222 572.492 102.993C567.032 97.6546 562.773 91.4451 559.715 84.3641C556.657 77.2831 555.128 69.5484 555.128 61.1602C555.128 52.7719 556.657 45.0372 559.715 37.9562C562.773 30.8752 567.032 24.7202 572.492 19.4912C577.952 14.1532 584.395 10.0135 591.821 7.07216C599.247 4.13082 607.382 2.66016 616.228 2.66016C624.964 2.66016 632.991 4.13082 640.308 7.07216C647.733 9.90456 654.176 13.9898 659.637 19.3278C665.206 24.5568 669.465 30.7118 672.413 37.7928C675.471 44.8738 677 52.6629 677 61.1602C677 69.6574 675.471 77.4465 672.413 84.5275C669.465 91.6085 665.206 97.818 659.637 103.156C654.176 108.385 647.733 112.47 640.308 115.412C632.991 118.244 624.964 119.66 616.228 119.66ZM616.228 105.117C622.562 105.117 628.404 104.027 633.755 101.849C639.215 99.6699 643.911 96.6197 647.843 92.6979C651.883 88.6671 654.995 83.9828 657.18 78.6448C659.473 73.3068 660.619 67.4786 660.619 61.1602C660.619 54.8417 659.473 49.0135 657.18 43.6755C654.995 38.3375 651.883 33.7076 647.843 29.7858C643.911 25.7551 639.215 22.6504 633.755 20.4716C628.404 18.2928 622.562 17.2035 616.228 17.2035C609.785 17.2035 603.833 18.2928 598.373 20.4716C593.022 22.6504 588.326 25.7551 584.286 29.7858C580.245 33.7076 577.078 38.3375 574.785 43.6755C572.601 49.0135 571.509 54.8417 571.509 61.1602C571.509 67.4786 572.601 73.3068 574.785 78.6448C577.078 83.9828 580.245 88.6671 584.286 92.6979C588.326 96.6197 593.022 99.6699 598.373 101.849C603.833 104.027 609.785 105.117 616.228 105.117Z" fill="white"/>
</svg>
